<mxfile host="app.diagrams.net" agent="Mozilla/5.0 (Windows NT 10.0; Win64; x64) AppleWebKit/537.36 (KHTML, like Gecko) Chrome/135.0.0.0 Safari/537.36" version="26.2.12">
  <diagram name="Page-1" id="OmDT3F9OB2DjiYDWq9ge">
    <mxGraphModel dx="788" dy="451" grid="1" gridSize="10" guides="1" tooltips="1" connect="1" arrows="1" fold="1" page="1" pageScale="1" pageWidth="850" pageHeight="1100" math="0" shadow="0">
      <root>
        <mxCell id="0" />
        <mxCell id="1" parent="0" />
        <mxCell id="APcSyUlKujnChR7fG-ZD-1" value="App User&lt;div&gt;&lt;br&gt;&lt;/div&gt;" style="shape=umlActor;verticalLabelPosition=bottom;verticalAlign=top;html=1;outlineConnect=0;" parent="1" vertex="1">
          <mxGeometry x="150" y="200" width="30" height="60" as="geometry" />
        </mxCell>
        <mxCell id="APcSyUlKujnChR7fG-ZD-5" value="" style="strokeWidth=2;html=1;shape=mxgraph.flowchart.start_1;whiteSpace=wrap;" parent="1" vertex="1">
          <mxGeometry x="250" y="90" width="100" height="60" as="geometry" />
        </mxCell>
        <mxCell id="APcSyUlKujnChR7fG-ZD-9" value="" style="endArrow=none;html=1;rounded=0;entryX=0.121;entryY=0.708;entryDx=0;entryDy=0;entryPerimeter=0;" parent="1" target="APcSyUlKujnChR7fG-ZD-10" edge="1">
          <mxGeometry width="50" height="50" relative="1" as="geometry">
            <mxPoint x="180" y="200" as="sourcePoint" />
            <mxPoint x="240" y="80" as="targetPoint" />
          </mxGeometry>
        </mxCell>
        <mxCell id="APcSyUlKujnChR7fG-ZD-10" value="" style="strokeWidth=2;html=1;shape=mxgraph.flowchart.start_1;whiteSpace=wrap;" parent="1" vertex="1">
          <mxGeometry x="230" y="10" width="130" height="70" as="geometry" />
        </mxCell>
        <mxCell id="APcSyUlKujnChR7fG-ZD-11" value="Provide text file lyrics" style="text;html=1;align=center;verticalAlign=middle;whiteSpace=wrap;rounded=0;" parent="1" vertex="1">
          <mxGeometry x="250" y="30" width="90" height="30" as="geometry" />
        </mxCell>
        <mxCell id="APcSyUlKujnChR7fG-ZD-12" value="Type lyrics into app" style="text;html=1;align=center;verticalAlign=middle;whiteSpace=wrap;rounded=0;" parent="1" vertex="1">
          <mxGeometry x="265" y="100" width="60" height="30" as="geometry" />
        </mxCell>
        <mxCell id="APcSyUlKujnChR7fG-ZD-13" value="" style="endArrow=none;html=1;rounded=0;entryX=0.145;entryY=0.855;entryDx=0;entryDy=0;entryPerimeter=0;" parent="1" target="APcSyUlKujnChR7fG-ZD-5" edge="1">
          <mxGeometry width="50" height="50" relative="1" as="geometry">
            <mxPoint x="190" y="220" as="sourcePoint" />
            <mxPoint x="240" y="170" as="targetPoint" />
          </mxGeometry>
        </mxCell>
        <mxCell id="APcSyUlKujnChR7fG-ZD-14" value="" style="html=1;labelBackgroundColor=#ffffff;startArrow=none;startFill=0;startSize=6;endArrow=classic;endFill=1;endSize=6;jettySize=auto;orthogonalLoop=1;strokeWidth=1;dashed=1;fontSize=14;rounded=0;" parent="1" edge="1">
          <mxGeometry width="60" height="60" relative="1" as="geometry">
            <mxPoint x="350" y="110" as="sourcePoint" />
            <mxPoint x="410" y="80" as="targetPoint" />
          </mxGeometry>
        </mxCell>
        <mxCell id="APcSyUlKujnChR7fG-ZD-15" value="" style="html=1;labelBackgroundColor=#ffffff;startArrow=none;startFill=0;startSize=6;endArrow=classic;endFill=1;endSize=6;jettySize=auto;orthogonalLoop=1;strokeWidth=1;dashed=1;fontSize=14;rounded=0;" parent="1" target="APcSyUlKujnChR7fG-ZD-16" edge="1">
          <mxGeometry width="60" height="60" relative="1" as="geometry">
            <mxPoint x="360" y="50" as="sourcePoint" />
            <mxPoint x="410" y="70" as="targetPoint" />
          </mxGeometry>
        </mxCell>
        <mxCell id="APcSyUlKujnChR7fG-ZD-16" value="" style="strokeWidth=2;html=1;shape=mxgraph.flowchart.start_1;whiteSpace=wrap;" parent="1" vertex="1">
          <mxGeometry x="410" y="50" width="100" height="60" as="geometry" />
        </mxCell>
        <mxCell id="APcSyUlKujnChR7fG-ZD-17" value="Take lyrics" style="text;html=1;align=center;verticalAlign=middle;whiteSpace=wrap;rounded=0;" parent="1" vertex="1">
          <mxGeometry x="425" y="60" width="60" height="30" as="geometry" />
        </mxCell>
        <mxCell id="APcSyUlKujnChR7fG-ZD-18" value="&amp;lt;&amp;lt;include&amp;gt;&amp;gt;" style="text;html=1;align=center;verticalAlign=middle;whiteSpace=wrap;rounded=0;" parent="1" vertex="1">
          <mxGeometry x="340" y="60" width="60" height="30" as="geometry" />
        </mxCell>
        <mxCell id="APcSyUlKujnChR7fG-ZD-19" value="" style="html=1;labelBackgroundColor=#ffffff;startArrow=none;startFill=0;startSize=6;endArrow=classic;endFill=1;endSize=6;jettySize=auto;orthogonalLoop=1;strokeWidth=1;dashed=1;fontSize=14;rounded=0;entryX=1;entryY=0.5;entryDx=0;entryDy=0;entryPerimeter=0;" parent="1" target="APcSyUlKujnChR7fG-ZD-16" edge="1">
          <mxGeometry width="60" height="60" relative="1" as="geometry">
            <mxPoint x="560" y="80" as="sourcePoint" />
            <mxPoint x="640" y="80" as="targetPoint" />
          </mxGeometry>
        </mxCell>
        <mxCell id="APcSyUlKujnChR7fG-ZD-20" value="" style="strokeWidth=2;html=1;shape=mxgraph.flowchart.start_1;whiteSpace=wrap;" parent="1" vertex="1">
          <mxGeometry x="560" y="50" width="100" height="60" as="geometry" />
        </mxCell>
        <mxCell id="APcSyUlKujnChR7fG-ZD-21" value="Generate wrong file format error" style="text;html=1;align=center;verticalAlign=middle;whiteSpace=wrap;rounded=0;" parent="1" vertex="1">
          <mxGeometry x="575" y="65" width="70" height="30" as="geometry" />
        </mxCell>
        <mxCell id="APcSyUlKujnChR7fG-ZD-22" value="&amp;lt;&amp;lt;extend&amp;gt;&amp;gt;" style="text;html=1;align=center;verticalAlign=middle;whiteSpace=wrap;rounded=0;" parent="1" vertex="1">
          <mxGeometry x="510" y="40" width="60" height="30" as="geometry" />
        </mxCell>
        <mxCell id="APcSyUlKujnChR7fG-ZD-23" value="" style="strokeWidth=2;html=1;shape=mxgraph.flowchart.start_1;whiteSpace=wrap;" parent="1" vertex="1">
          <mxGeometry x="290" y="150" width="100" height="60" as="geometry" />
        </mxCell>
        <mxCell id="APcSyUlKujnChR7fG-ZD-27" value="" style="endArrow=none;html=1;rounded=0;entryX=-0.02;entryY=0.689;entryDx=0;entryDy=0;entryPerimeter=0;" parent="1" target="APcSyUlKujnChR7fG-ZD-23" edge="1">
          <mxGeometry width="50" height="50" relative="1" as="geometry">
            <mxPoint x="200" y="230" as="sourcePoint" />
            <mxPoint x="250" y="180" as="targetPoint" />
          </mxGeometry>
        </mxCell>
        <mxCell id="APcSyUlKujnChR7fG-ZD-28" value="Get app use help" style="text;html=1;align=center;verticalAlign=middle;whiteSpace=wrap;rounded=0;" parent="1" vertex="1">
          <mxGeometry x="300" y="165" width="80" height="30" as="geometry" />
        </mxCell>
        <mxCell id="APcSyUlKujnChR7fG-ZD-29" value="" style="strokeWidth=2;html=1;shape=mxgraph.flowchart.start_1;whiteSpace=wrap;" parent="1" vertex="1">
          <mxGeometry x="290" y="220" width="100" height="60" as="geometry" />
        </mxCell>
        <mxCell id="APcSyUlKujnChR7fG-ZD-30" value="" style="endArrow=none;html=1;rounded=0;entryX=0;entryY=0.5;entryDx=0;entryDy=0;entryPerimeter=0;" parent="1" target="APcSyUlKujnChR7fG-ZD-29" edge="1">
          <mxGeometry width="50" height="50" relative="1" as="geometry">
            <mxPoint x="200" y="230" as="sourcePoint" />
            <mxPoint x="250" y="180" as="targetPoint" />
          </mxGeometry>
        </mxCell>
        <mxCell id="APcSyUlKujnChR7fG-ZD-31" value="Specify what app should do" style="text;html=1;align=center;verticalAlign=middle;whiteSpace=wrap;rounded=0;" parent="1" vertex="1">
          <mxGeometry x="310" y="235" width="60" height="30" as="geometry" />
        </mxCell>
        <mxCell id="APcSyUlKujnChR7fG-ZD-39" value="" style="html=1;labelBackgroundColor=#ffffff;startArrow=none;startFill=0;startSize=6;endArrow=classic;endFill=1;endSize=6;jettySize=auto;orthogonalLoop=1;strokeWidth=1;dashed=1;fontSize=14;rounded=0;exitX=0.887;exitY=0.3;exitDx=0;exitDy=0;exitPerimeter=0;entryX=0.073;entryY=0.233;entryDx=0;entryDy=0;entryPerimeter=0;" parent="1" source="APcSyUlKujnChR7fG-ZD-47" target="APcSyUlKujnChR7fG-ZD-40" edge="1">
          <mxGeometry width="60" height="60" relative="1" as="geometry">
            <mxPoint x="548" y="236.64" as="sourcePoint" />
            <mxPoint x="560" y="300" as="targetPoint" />
          </mxGeometry>
        </mxCell>
        <mxCell id="APcSyUlKujnChR7fG-ZD-40" value="" style="strokeWidth=2;html=1;shape=mxgraph.flowchart.start_1;whiteSpace=wrap;" parent="1" vertex="1">
          <mxGeometry x="590" y="250" width="100" height="60" as="geometry" />
        </mxCell>
        <mxCell id="APcSyUlKujnChR7fG-ZD-41" value="Remember words/rhymes" style="text;html=1;align=center;verticalAlign=middle;whiteSpace=wrap;rounded=0;" parent="1" vertex="1">
          <mxGeometry x="605" y="260" width="75" height="40" as="geometry" />
        </mxCell>
        <mxCell id="APcSyUlKujnChR7fG-ZD-43" value="&amp;lt;&amp;lt;include&amp;gt;&amp;gt;" style="text;html=1;align=center;verticalAlign=middle;whiteSpace=wrap;rounded=0;" parent="1" vertex="1">
          <mxGeometry x="470" y="270" width="60" height="30" as="geometry" />
        </mxCell>
        <mxCell id="APcSyUlKujnChR7fG-ZD-46" value="" style="endArrow=none;html=1;rounded=0;" parent="1" target="APcSyUlKujnChR7fG-ZD-47" edge="1">
          <mxGeometry width="50" height="50" relative="1" as="geometry">
            <mxPoint x="200" y="270" as="sourcePoint" />
            <mxPoint x="310" y="340" as="targetPoint" />
          </mxGeometry>
        </mxCell>
        <mxCell id="APcSyUlKujnChR7fG-ZD-47" value="" style="strokeWidth=2;html=1;shape=mxgraph.flowchart.start_1;whiteSpace=wrap;" parent="1" vertex="1">
          <mxGeometry x="310" y="310" width="130" height="80" as="geometry" />
        </mxCell>
        <mxCell id="APcSyUlKujnChR7fG-ZD-48" value="Get color coded rhyme scheme" style="text;html=1;align=center;verticalAlign=middle;whiteSpace=wrap;rounded=0;" parent="1" vertex="1">
          <mxGeometry x="320" y="335" width="105" height="30" as="geometry" />
        </mxCell>
        <mxCell id="APcSyUlKujnChR7fG-ZD-52" value="" style="endArrow=none;html=1;rounded=0;" parent="1" target="APcSyUlKujnChR7fG-ZD-53" edge="1">
          <mxGeometry width="50" height="50" relative="1" as="geometry">
            <mxPoint x="190" y="275" as="sourcePoint" />
            <mxPoint x="300" y="400" as="targetPoint" />
          </mxGeometry>
        </mxCell>
        <mxCell id="APcSyUlKujnChR7fG-ZD-53" value="" style="strokeWidth=2;html=1;shape=mxgraph.flowchart.start_1;whiteSpace=wrap;" parent="1" vertex="1">
          <mxGeometry x="360" y="430" width="100" height="60" as="geometry" />
        </mxCell>
        <mxCell id="APcSyUlKujnChR7fG-ZD-54" value="Specify single word/phrase to rhyme" style="text;html=1;align=center;verticalAlign=middle;whiteSpace=wrap;rounded=0;" parent="1" vertex="1">
          <mxGeometry x="370" y="445" width="80" height="30" as="geometry" />
        </mxCell>
        <mxCell id="APcSyUlKujnChR7fG-ZD-56" value="" style="strokeWidth=2;html=1;shape=mxgraph.flowchart.start_1;whiteSpace=wrap;" parent="1" vertex="1">
          <mxGeometry x="592.5" y="130" width="100" height="60" as="geometry" />
        </mxCell>
        <mxCell id="APcSyUlKujnChR7fG-ZD-57" value="" style="html=1;labelBackgroundColor=#ffffff;startArrow=none;startFill=0;startSize=6;endArrow=classic;endFill=1;endSize=6;jettySize=auto;orthogonalLoop=1;strokeWidth=1;dashed=1;fontSize=14;rounded=0;entryX=0;entryY=0.5;entryDx=0;entryDy=0;entryPerimeter=0;exitX=0.855;exitY=0.145;exitDx=0;exitDy=0;exitPerimeter=0;" parent="1" source="APcSyUlKujnChR7fG-ZD-47" target="APcSyUlKujnChR7fG-ZD-56" edge="1">
          <mxGeometry width="60" height="60" relative="1" as="geometry">
            <mxPoint x="536" y="204" as="sourcePoint" />
            <mxPoint x="650" y="130" as="targetPoint" />
          </mxGeometry>
        </mxCell>
        <mxCell id="APcSyUlKujnChR7fG-ZD-59" value="Ignores punctuation" style="text;html=1;align=center;verticalAlign=middle;whiteSpace=wrap;rounded=0;" parent="1" vertex="1">
          <mxGeometry x="610" y="145" width="60" height="30" as="geometry" />
        </mxCell>
        <mxCell id="APcSyUlKujnChR7fG-ZD-62" value="" style="strokeWidth=2;html=1;shape=mxgraph.flowchart.start_1;whiteSpace=wrap;" parent="1" vertex="1">
          <mxGeometry x="210" y="390" width="130" height="90" as="geometry" />
        </mxCell>
        <mxCell id="APcSyUlKujnChR7fG-ZD-65" value="" style="endArrow=none;html=1;rounded=0;entryX=0.2;entryY=0;entryDx=0;entryDy=0;entryPerimeter=0;" parent="1" target="APcSyUlKujnChR7fG-ZD-62" edge="1">
          <mxGeometry width="50" height="50" relative="1" as="geometry">
            <mxPoint x="180" y="285" as="sourcePoint" />
            <mxPoint x="230" y="235" as="targetPoint" />
          </mxGeometry>
        </mxCell>
        <mxCell id="APcSyUlKujnChR7fG-ZD-66" value="Go through installation/setup process" style="text;html=1;align=center;verticalAlign=middle;whiteSpace=wrap;rounded=0;" parent="1" vertex="1">
          <mxGeometry x="245" y="420" width="60" height="30" as="geometry" />
        </mxCell>
      </root>
    </mxGraphModel>
  </diagram>
</mxfile>
